<svg width="16" height="17" viewBox="0 0 16 17" fill="none" xmlns="http://www.w3.org/2000/svg">
<path d="M5.0625 16.0898C5.97656 16.0898 6.75 15.3516 6.75 14.4023V2.02734C6.75 1.11328 5.97656 0.339844 5.0625 0.339844H1.6875C0.738281 0.339844 0 1.11328 0 2.02734V14.4023C0 15.3516 0.738281 16.0898 1.6875 16.0898H5.0625ZM15.75 14.4023V2.02734C15.75 1.11328 14.9766 0.339844 14.0625 0.339844H10.6875C9.73828 0.339844 9 1.11328 9 2.02734V14.4023C9 15.3516 9.73828 16.0898 10.6875 16.0898H14.0625C14.9766 16.0898 15.75 15.3516 15.75 14.4023Z" fill="white"/>
</svg>
