<svg width="776" height="77" viewBox="0 0 776 77" fill="none" xmlns="http://www.w3.org/2000/svg">
<path d="M10.16 14.32L5.12 10.84L0.2 11.08L0.32 3.28L6.44 3.4L10.76 6.28L13.4 7.36L17.48 8.56L17.96 9.16L15.44 11.44L10.16 14.32ZM14.48 6.99999L11.72 5.8L7.64 3.04L18.68 3.28L16.76 4.72L15.68 6.51999L15.8 7.72L14.48 6.99999ZM6.32 15.52L4.76 18.64L0.2 20.44L0.32 13.36L5.12 11.68L7.76 14.32L6.32 15.52ZM10.28 15.28L14.96 13.6L5.84 24.88H0.56V20.92L5.12 19.12L6.8 15.64L8.12 14.32L10.28 15.28ZM34.64 3.63999H66.44V24.64H47.72V76H19.88V24.64L19.4 20.56L18.8 14.32L19.16 11.44L24.2 13.72L34.64 3.63999ZM16.76 6.39999L17.48 4.96C18.52 4.16 19.28 3.55999 19.76 3.15999L34.4 2.8L31.4 4.72L24.32 11.44L19.52 9.27999L19.64 8.56L19.4 8.67999L18.92 8.07999L16.88 7.59999L16.76 6.39999ZM17.96 15.64L19.4 24.04V24.88L6.92 25.24L10.76 20.44L11.6 19.24L11.96 19.12L15.2 14.44L18.08 11.92L17.72 15.4L17.84 15.76L17.96 15.64ZM108.808 15.28L98.8484 14.92V3.75999L112.528 3.28L116.248 6.51999L110.248 8.56L108.928 15.4L108.808 15.28ZM122.488 11.44L124.048 16.96L127.888 20.08V20.68L127.048 20.56L116.608 19.36L110.608 16.36L111.568 13.48L111.808 11.68L112.048 9.52L112.408 9.27999L117.808 7.59999L122.488 11.44ZM123.088 8.92L120.688 6.99999L115.288 3.28L129.688 2.68L129.928 8.2L128.248 7.36L125.728 8.56L123.088 8.92ZM128.488 8.8C129.048 10 129.568 10.72 130.048 10.96L130.408 20.56L125.008 16.72L123.568 11.32L126.088 10.96L128.488 8.8ZM110.728 19.6L104.368 22.84L98.8484 24.04L99.3284 16.24L109.288 17.2L113.728 19.36L110.728 19.6ZM168.328 6.88L172.048 5.68L171.328 26.32L165.808 24.04L160.408 20.44L155.608 15.52L159.328 14.8L165.688 6.99999L168.328 6.88ZM144.208 24.04L139.888 22.24L139.408 9.27999L150.568 15.16L152.128 17.8L152.608 18.52L153.208 21.88L144.208 24.04ZM152.848 15.76C158.848 21.84 162.008 25 162.328 25.24C162.408 25.32 162.928 25.52 163.888 25.84C164.928 26.08 166.208 26.4 167.728 26.8C169.248 27.2 170.408 27.52 171.208 27.76V76H140.008V50.2H130.048V76H98.8484V25.48L104.968 24.04L112.048 20.56L115.648 20.08L117.088 20.8L130.048 22.24V31.96H140.008V23.08L144.688 25.36L155.368 23.8L154.288 18.88L152.728 15.76H152.848ZM152.968 5.56L144.568 5.8L139.408 7.59999V7.36L139.768 3.04L155.248 4L152.968 5.56ZM146.488 6.39999L154.648 6.16L157.168 4.12L171.208 4.23999V4.83999L167.488 6.51999L162.808 6.28L157.768 14.2L154.408 14.92L154.288 14.8L142.408 8.07999L142.168 7.96L146.488 6.39999ZM266.208 6.51999C266.128 6.43999 265.768 6.28 265.128 6.04C264.568 5.72 263.968 5.4 263.328 5.08C262.768 4.68 262.448 4.4 262.368 4.23999C262.208 3.91999 261.848 3.43999 261.288 2.8L270.288 3.15999L270.048 11.08L269.328 8.8C267.328 7.36 266.288 6.6 266.208 6.51999ZM257.808 7.72C257.808 7.72 257.768 7.6 257.688 7.36C257.608 7.12 257.488 6.92 257.328 6.76C257.248 6.52 257.208 6.39999 257.208 6.39999L257.448 5.08L258.768 2.8L260.928 3.4L261.288 3.63999L261.888 4.72L262.128 5.08L265.128 6.88L266.088 7.84L263.568 8.2C263.248 8.2 263.048 8.2 262.968 8.2C262.808 8.12 262.728 8.07999 262.728 8.07999C262.648 8 262.568 7.92 262.488 7.84C262.488 7.76 262.448 7.72 262.368 7.72L261.648 7.36C261.808 7.44 261.888 7.51999 261.888 7.59999L262.248 7.72L262.368 7.84L262.488 7.96L262.608 8.07999C262.688 8.24 262.728 8.36 262.728 8.44L263.568 8.8L261.048 11.92L259.248 14.56L258.528 9.27999L257.808 7.72ZM264.048 8.56L265.848 8.2L266.208 8.32L264.528 8.8L264.048 8.56ZM262.608 31.96V31.48L267.528 31.6L267.408 34.72C267.008 34.8 266.808 34.84 266.808 34.84L264.408 35.08H263.688C263.608 35.08 263.488 35.16 263.328 35.32C263.168 35.4 263.048 35.44 262.968 35.44C262.968 35.44 262.968 35.48 262.968 35.56C262.968 35.48 262.968 35.36 262.968 35.2C262.968 35.04 262.968 34.88 262.968 34.72C263.048 34.56 263.088 34.44 263.088 34.36V33.16L262.608 31.96ZM267.528 35.68L267.648 35.56L267.768 44.44L266.448 42.64L264.408 38.32L262.968 37L263.808 36.16C264.208 36.16 264.568 36.12 264.888 36.04C264.968 36.04 265.128 36.04 265.368 36.04C265.608 35.96 265.808 35.92 265.968 35.92C266.208 35.84 266.328 35.8 266.328 35.8L267.528 35.68ZM261.288 46.36L262.248 45.04L263.208 44.44L263.448 43.6L263.568 38.92L264.408 39.88L265.968 43.6L267.288 45.4L267.048 50.32L263.928 50.2V49.48L263.688 48.64L263.088 49.48L262.968 49.96L260.208 50.08L261.288 46.36ZM263.568 49.36L263.688 49.84L263.808 50.68L262.968 50.92L263.208 50.08L263.568 49.36ZM263.088 64.24L262.368 65.2L262.008 64.24L258.288 61.24L257.208 57.88H262.008L263.088 64.24ZM262.248 33.4V34.36L262.008 35.32L262.128 35.56L261.768 36.16L261.648 36.52L257.448 37L256.128 34.48L254.928 34.36L253.728 31.36L261.648 32.08V32.56L262.248 33.4ZM266.208 68.68L268.248 68.44L270.648 67.24L270.408 73.12L266.328 71.92L262.848 69.88L262.968 69.52L266.208 68.68ZM262.488 70.48L266.088 72.52C267.688 72.92 269.048 73.28 270.168 73.6V76.48L262.128 76.24L262.608 74.2L262.248 72.28L262.368 70.72L262.488 70.48ZM262.008 70.24L261.888 70.36L261.648 72.04L262.008 73.96L261.048 76H204.528V3.63999H249.168L248.568 2.55999H257.208L256.128 5.08V6.88L256.848 7.96L255.288 6.64L252.288 5.44L250.008 4.36L249.288 5.08L250.248 6.51999L254.808 7.72L256.608 9.04L256.968 9.27999L258.048 13.84L258.768 16.36L262.128 13.72L262.008 14.2L261.888 15.04V15.64V16.48L261.648 17.32L262.248 16.48L262.008 15.52C262.008 15.52 262.008 15.4 262.008 15.16L262.128 14.68C262.368 14.12 262.488 13.8 262.488 13.72C262.488 13.72 262.488 13.44 262.488 12.88C262.568 12.32 262.608 12.04 262.608 12.04L264.168 9.4L267.168 8.44L268.488 10.96L269.448 11.92L269.928 13.48V24.64H236.328V31.96H252.288L253.728 35.2L255.168 35.44L256.968 38.44L262.368 37.48C262.208 40.76 262.088 42.48 262.008 42.64L260.208 45.64L259.008 50.2H236.328V57.76H256.848V62.08L258.048 65.56L261.648 68.68L262.008 69.64L262.128 69.88L262.008 70.24ZM267.288 60.64L267.048 59.56L267.288 57.76L268.848 57.88L268.248 60.04L267.768 60.88L267.648 61.12L267.288 60.64ZM266.328 67.72L262.848 68.68V65.68L262.968 65.32L263.568 64.6L262.968 58L266.928 58.24C266.928 59.52 266.928 60.16 266.928 60.16L267.168 61.36L267.528 61.96L267.888 61.6L268.968 58.36H270.888L270.048 66.16L268.128 67.48L266.328 67.72ZM261.288 65.2L262.008 66.64L262.128 67.6L261.168 67L258.408 63.52V62.8L261.288 65.2ZM470.924 25.6L472.004 24.28C472.484 24.44 473.004 24.64 473.564 24.88L472.484 30.88L469.244 28.6L466.964 26.8L469.724 25.72L470.924 25.6ZM433.964 30.64C434.124 30.32 434.204 30.16 434.204 30.16C434.284 30.08 435.684 29.44 438.404 28.24L439.244 36.16L438.404 37.36L434.684 38.92L431.924 46.36L432.164 45.76L433.964 30.64ZM429.524 51.16V54.28L427.604 58.36L427.244 59.2L426.644 53.08L427.124 52.96L427.724 53.2L429.524 51.16ZM460.004 29.44L465.524 26.8L472.004 31.36L467.564 76H431.204L427.724 59.68L428.324 58.84L429.044 56.8L430.244 53.68L430.004 49.72L431.444 48.04L431.564 47.68L434.564 40L438.644 37.96L439.244 37L440.924 48.16L442.724 31L450.284 30.64L452.204 29.2L458.084 28.24L460.004 29.44ZM450.164 28.48L448.844 29.68L442.364 29.92L443.204 21.04L454.004 27.52L450.164 28.48ZM457.724 27.4L444.644 20.56L443.804 19.72L445.124 3.63999H474.524L472.724 23.8L471.044 23.2L469.964 24.76L468.524 25.12L465.764 26.44L465.644 26.56L465.044 26.8L463.364 25.72L460.124 25.36L457.724 27.4ZM460.484 26.08L462.764 26.2L463.964 26.92L460.604 28.48L459.284 28L458.804 27.76L460.484 26.08ZM430.604 32.08L425.444 32.32L413.924 28.72L417.284 3.63999H434.684L437.804 27.4L433.244 30.04L433.124 30.4L430.604 32.08ZM431.444 46.6L427.724 51.88L426.524 51.76L426.044 48.04L420.764 76H384.644L377.684 3.63999H406.844L411.044 48.16L413.804 29.44L424.964 32.44L429.884 33.04L432.884 31.6L431.444 46.6ZM524.897 4L525.617 3.75999L524.657 8.56V8.44L524.057 7.84L523.697 5.91999L523.937 5.56L524.417 4.6L524.657 4.23999L524.897 4ZM521.657 9.27999L520.817 7.72L517.817 1.6L525.977 0.759996L525.377 3.63999L524.537 3.88L524.297 4.12L524.177 4.48L523.577 5.44L523.457 5.8L523.697 7.84L524.297 8.44L523.337 15.88H523.097V9.4L522.377 14.2L521.657 9.27999ZM527.177 5.44L526.457 6.88L526.097 7.24L527.057 3.15999L526.937 4.6L527.177 5.44ZM525.977 7.59999L525.737 7.96L526.097 7.36V7.24L525.977 7.59999ZM524.657 15.4L524.297 15.16L525.977 7.59999C526.057 7.44 526.137 7.32 526.217 7.24C526.377 7.16 526.497 7.08 526.577 6.99999L526.697 7.24V7.96L526.577 8.8L526.817 7.96C526.817 7.56 526.817 7.36 526.817 7.36C526.817 7.36 526.737 7.2 526.577 6.88L526.697 6.76L527.177 5.68L527.777 4.72L527.297 5.2L527.177 4.12V3.15999L527.657 1.84L533.897 3.52L531.137 7.72C529.777 8.12 528.937 8.6 528.617 9.16C528.537 9.23999 528.377 9.52 528.137 10C527.977 10.4 527.817 10.88 527.657 11.44C527.497 12 527.337 12.56 527.177 13.12C527.017 13.6 526.897 14 526.817 14.32L526.697 14.92L525.257 16.48L524.897 15.88L525.857 14.2L524.657 15.4ZM512.177 31.24L509.657 35.32L509.297 33.76L513.137 29.68L512.177 31.24ZM511.817 28.6L511.697 28.36L509.777 29.32L511.457 21.76L516.137 20.08V20.2L515.897 20.32L515.657 20.8V21.64L516.257 20.44L516.617 20.2L516.737 19.96L517.697 19.24L521.537 18.76L521.657 19L522.137 19.24L520.097 22L515.657 25.6L509.057 33.16L508.817 32.92L509.297 30.88L511.337 29.2L511.817 28.6ZM572.657 52.12L571.577 51.88L569.657 50.32L569.777 50.8L569.057 51.04L566.777 50.68L570.377 44.32L572.657 52.12ZM571.457 52.72L569.057 51.52L570.257 51.4L571.457 52.72ZM573.137 52.24L571.217 43.96L571.937 42.52L573.977 40.84L575.297 54.76L574.457 54.28L573.137 52.24ZM567.257 60.04L563.897 59.2L576.377 57.64L577.937 62.44L577.817 64.96L576.017 64.12L575.417 64.36L573.377 62.32L571.217 61.24L567.257 60.04ZM572.657 53.32L574.697 55.48L575.417 56.92L570.137 57.64L567.857 56.44H566.537L567.737 58.12L561.257 58.84L563.057 59.44L558.857 59.8H558.017L566.177 51.28L569.417 52.12L571.097 52.84L571.337 52.96L572.657 53.32ZM567.257 57.04H568.337L569.657 57.76L568.457 58L567.257 57.04ZM567.137 60.76L570.617 61.84L571.697 62.44L571.457 62.56L568.817 61.84L566.777 60.88L567.137 60.76ZM558.497 63.88L558.257 66.64L555.377 69.76L555.017 72.28L554.897 76H547.937L546.977 69.04H534.257L533.177 76H502.817L510.977 35.08L511.337 34.48L511.817 33.28L513.857 30.28L514.097 29.32L517.097 25.24L521.177 21.28L522.977 18.28L522.257 17.92L522.137 17.44L518.177 17.92L517.097 19L513.497 20.44L514.577 15.4L517.697 16L517.817 15.88L517.217 15.4L514.937 14.08L516.737 3.63999H517.457L520.697 11.44L521.657 14.44L522.257 16.84L522.737 15.04V17.44H523.337L523.697 16.96L524.057 17.32L524.897 16.48L524.297 17.56L524.777 18.4L526.937 16C527.497 14.88 527.977 14.04 528.377 13.48L531.377 8.92L534.377 3.63999H564.497L571.697 41.92L569.537 43.96L564.617 51.64L555.497 60.04L555.737 60.28H555.977V60.88L558.497 63.88ZM537.137 50.8H544.217L540.737 18.04L537.137 50.8ZM510.857 29.2L510.497 29.56L508.217 31.36L508.577 30.04L510.737 29.08L510.857 29.2ZM516.377 15.16V15.52L513.977 15.16V14.2L516.377 15.16ZM577.577 66.28L578.297 76H564.977C565.937 75.12 566.417 74.64 566.417 74.56L570.257 68.44L573.617 66.76H575.897L577.577 66.28ZM574.817 64.84H575.657L577.097 65.32L577.217 65.92L575.657 66.4H574.937L573.617 66.16L574.817 64.84ZM568.697 67.96L564.977 73.72L563.537 75.28H555.977V72.52L556.337 70.12L559.337 67.12H559.457V64.96C559.697 64.08 559.817 63.64 559.817 63.64C559.817 63.56 559.297 62.84 558.257 61.48L563.897 60.76C564.857 60.84 565.537 61 565.937 61.24L568.097 62.32L570.617 63.04L570.977 63.16H571.217L571.577 63.28L573.257 64.96L571.937 66.4L568.697 67.96ZM632.683 13.6L627.043 5.2L624.883 3.88V3.75999L641.923 3.28L642.283 19.96L632.683 13.6ZM628.483 8.56L632.683 15.52L641.683 21.52L641.803 28.6L631.843 24.52L630.283 20.68L629.563 15.64L628.483 8.56ZM618.403 17.44C618.483 17.28 618.883 16.32 619.603 14.56C620.403 12.72 620.843 11.76 620.923 11.68L624.763 5.2L626.443 6.28L627.043 6.99999L628.123 14.56C628.363 17.52 628.483 19.24 628.483 19.72C628.483 19.8 628.483 19.92 628.483 20.08L624.643 22.6L620.203 23.44C618.683 21.84 617.883 21.04 617.803 21.04C617.803 20.96 617.483 20.24 616.843 18.88C617.803 18 618.323 17.52 618.403 17.44ZM614.683 22.48L611.683 26.44V23.32C613.043 22.2 614.163 21.28 615.043 20.56L614.683 22.48ZM642.043 57.76H676.843V76H611.443V27.76L615.523 22.12L615.883 19.48L617.083 22L619.603 25.24L621.523 24.64L625.843 23.92L629.323 20.92C629.403 21.16 629.523 21.48 629.683 21.88C629.923 22.28 630.123 22.68 630.283 23.08C630.523 23.48 630.723 23.88 630.883 24.28C631.123 24.6 631.283 24.88 631.363 25.12C631.523 25.36 631.643 25.52 631.723 25.6C631.723 25.6 632.363 25.92 633.643 26.56C635.003 27.2 636.563 27.92 638.323 28.72C640.083 29.52 641.323 30.16 642.043 30.64V57.76ZM617.203 17.44L611.563 22.48L610.723 4.12L614.203 3.88L614.443 5.08L613.963 7.84L616.123 7.72L618.403 3.75999L624.043 3.63999L623.923 3.88L621.523 5.8L619.963 11.08L617.203 17.44ZM616.243 6.28L614.683 6.88L615.163 4.6L614.923 3.52L617.923 3.28L616.243 6.28ZM731.215 13.6L725.575 5.2L723.415 3.88V3.75999L740.455 3.28L740.815 19.96L731.215 13.6ZM727.015 8.56L731.215 15.52L740.215 21.52L740.335 28.6L730.375 24.52L728.815 20.68L728.095 15.64L727.015 8.56ZM716.935 17.44C717.015 17.28 717.415 16.32 718.135 14.56C718.935 12.72 719.375 11.76 719.455 11.68L723.295 5.2L724.975 6.28L725.575 6.99999L726.655 14.56C726.895 17.52 727.015 19.24 727.015 19.72C727.015 19.8 727.015 19.92 727.015 20.08L723.175 22.6L718.735 23.44C717.215 21.84 716.415 21.04 716.335 21.04C716.335 20.96 716.015 20.24 715.375 18.88C716.335 18 716.855 17.52 716.935 17.44ZM713.215 22.48L710.215 26.44V23.32C711.575 22.2 712.695 21.28 713.575 20.56L713.215 22.48ZM740.575 57.76H775.375V76H709.975V27.76L714.055 22.12L714.415 19.48L715.615 22L718.135 25.24L720.055 24.64L724.375 23.92L727.855 20.92C727.935 21.16 728.055 21.48 728.215 21.88C728.455 22.28 728.655 22.68 728.815 23.08C729.055 23.48 729.255 23.88 729.415 24.28C729.655 24.6 729.815 24.88 729.895 25.12C730.055 25.36 730.175 25.52 730.255 25.6C730.255 25.6 730.895 25.92 732.175 26.56C733.535 27.2 735.095 27.92 736.855 28.72C738.615 29.52 739.855 30.16 740.575 30.64V57.76ZM715.735 17.44L710.095 22.48L709.255 4.12L712.735 3.88L712.975 5.08L712.495 7.84L714.655 7.72L716.935 3.75999L722.575 3.63999L722.455 3.88L720.055 5.8L718.495 11.08L715.735 17.44ZM714.775 6.28L713.215 6.88L713.695 4.6L713.455 3.52L716.455 3.28L714.775 6.28Z" fill="white"/>
</svg>
