<svg width="41" height="27" viewBox="0 0 41 27" fill="none" xmlns="http://www.w3.org/2000/svg">
<path d="M0 10C0 9.44772 0.447715 9 1 9H7C7.55228 9 8 9.44772 8 10V27H0V10Z" fill="white"/>
<path d="M11 0.999999C11 0.447715 11.4477 0 12 0H18C18.5523 0 19 0.447715 19 1V27H11V0.999999Z" fill="white"/>
<path d="M22 20C22 19.4477 22.4477 19 23 19H29C29.5523 19 30 19.4477 30 20V27H22V20Z" fill="white"/>
<path d="M33 7C33 6.44772 33.4477 6 34 6H40C40.5523 6 41 6.44772 41 7V27H33V7Z" fill="white"/>
</svg>
